# xmcd
#
# Track frame offsets: 
#        150
#        19043
#        35020
#        55524
#        69692
#        90101
#        113732
#        131474
#        155623
#        173192
#        194716
#        212516
#        225973
#        244267
#        263386
#
# Disc length: 3790 seconds
#
# Revision: 1
# Processed by: cddbd v1.5.2PL0 Copyright (c) Steve Scherf et al.
# Submitted via: ExactAudioCopy v0.95b4
#
DISCID=bc0ecc0f
DTITLE=Various Artist - A Walk On The Blues Side
DYEAR=2006
DGENRE=Blues
TTITLE0=Hard Knock Fabulous Thunderbirds
TTITLE1=Till I Found You Susan Tedeschi
TTITLE2=Blues Power Koko Taylor
TTITLE3=Crazy Cajun Robert Palmer
TTITLE4=It Takes A Lot Taj Mahal
TTITLE5=The Weight Joan Osbourne
TTITLE6=Last Train To Memphis The Band
TTITLE7=Slow Moving Train Dixie Hummingbirds
TTITLE8=Before You Acuse Me Bo Didley
TTITLE9=One Good Man Lu Ann Barton
TTITLE10=Custard Pie Eric Gales
TTITLE11=No Dope Blind Boys Of Alabama
TTITLE12=I Gotta Right To Sing The Blues Francine Reed
TTITLE13=What Good Can Drinking Do Tracy Nelson
TTITLE14=When A Man Loves A Woman Spencer Davis Group
EXTD=
EXTT0=
EXTT1=
EXTT2=
EXTT3=
EXTT4=
EXTT5=
EXTT6=
EXTT7=
EXTT8=
EXTT9=
EXTT10=
EXTT11=
EXTT12=
EXTT13=
EXTT14=
PLAYORDER=
